<?xml version="1.0" standalone="no"?>
<!DOCTYPE svg PUBLIC "-//W3C//DTD SVG 20010904//EN"
 "http://www.w3.org/TR/2001/REC-SVG-20010904/DTD/svg10.dtd">
<svg version="1.0" xmlns="http://www.w3.org/2000/svg"
 width="512.000000pt" height="512.000000pt" viewBox="0 0 512.000000 512.000000"
 preserveAspectRatio="xMidYMid meet">
<metadata>
Created by potrace 1.11, written by Peter Selinger 2001-2013
</metadata>
<g transform="translate(0.000000,512.000000) scale(0.100000,-0.100000)"
fill="#000000" stroke="none">
<path d="M3830 4680 c0 -5 5 -10 11 -10 5 0 7 5 4 10 -3 6 -8 10 -11 10 -2 0
-4 -4 -4 -10z"/>
<path d="M850 4650 c-20 -20 -20 -29 -20 -1585 0 -1552 0 -1565 20 -1585 16
-16 34 -20 88 -21 116 -1 353 -15 399 -23 10 -2 50 -7 88 -11 261 -26 530 -83
776 -166 81 -27 154 -49 162 -49 43 0 42 -43 43 1432 1 1273 0 1401 -15 1418
-9 10 -216 99 -461 196 -245 97 -538 214 -652 259 -114 45 -205 84 -203 87 2
2 -4 4 -14 5 -10 1 -44 12 -77 26 -94 38 -111 40 -134 17z"/>
<path d="M3960 4564 c-146 -58 -274 -110 -285 -114 -11 -5 -78 -32 -150 -60
-71 -28 -139 -55 -150 -60 -11 -5 -157 -64 -325 -130 -168 -67 -312 -129 -321
-140 -15 -17 -16 -146 -16 -1412 -1 -1475 -2 -1438 43 -1438 9 0 83 23 165 50
83 28 158 51 167 53 9 1 23 6 30 10 6 5 12 6 12 3 0 -3 21 1 48 9 26 8 58 16
72 19 14 3 36 8 50 11 65 14 323 55 385 60 39 4 77 8 85 10 29 8 287 23 413
24 53 1 71 5 87 21 20 20 20 33 20 1585 0 1552 0 1565 -20 1585 -11 11 -26 20
-32 20 -7 -1 -132 -48 -278 -106z"/>
<path d="M16 4164 c-14 -14 -16 -178 -16 -1654 l0 -1640 24 -16 c19 -12 40
-14 88 -10 35 3 103 8 153 11 50 4 113 8 140 11 125 10 667 3 775 -10 19 -2
62 -7 95 -10 99 -11 368 -57 387 -67 10 -5 18 -8 18 -5 0 7 131 -30 235 -66
50 -17 152 -62 228 -100 148 -74 265 -123 337 -143 102 -27 219 6 482 136 192
96 378 160 558 194 14 3 36 7 50 10 14 3 43 7 65 11 22 3 47 7 55 9 26 8 223
28 390 40 75 6 547 6 645 0 78 -4 148 -9 291 -21 67 -6 73 -4 88 17 15 21 16
166 16 1656 0 1508 -1 1633 -17 1648 -22 23 -39 20 -318 -64 -132 -40 -248
-74 -257 -77 -9 -3 -20 -15 -24 -27 -4 -12 -8 -628 -8 -1369 -1 -1035 -4
-1350 -13 -1359 -8 -8 -68 -13 -190 -15 -250 -4 -504 -21 -603 -39 -8 -2 -44
-6 -80 -10 -36 -3 -72 -8 -80 -10 -8 -2 -31 -7 -50 -10 -175 -31 -344 -72
-465 -112 -44 -15 -82 -28 -85 -28 -3 -1 -18 -7 -33 -13 -16 -7 -30 -12 -33
-12 -7 0 -208 -101 -261 -131 l-41 -23 -139 70 c-76 39 -165 81 -198 94 -33
12 -69 26 -80 30 -19 8 -90 31 -110 36 -5 2 -57 15 -115 29 -58 15 -114 28
-125 31 -25 5 -132 25 -165 30 -14 2 -34 6 -46 9 -11 2 -45 7 -75 10 -30 3
-85 10 -124 15 -139 19 -340 31 -585 34 -86 1 -160 5 -166 8 -7 5 -10 450 -9
1364 0 1530 8 1387 -81 1413 -27 7 -76 22 -109 32 -233 70 -369 109 -385 109
-10 0 -26 -7 -34 -16z"/>
</g>
</svg>
